<svg xmlns="http://www.w3.org/2000/svg" viewBox="0 0 375 375" width="375" height="375">
  <!-- Flash lightning bolt logo - optimized version -->
  <defs>
    <linearGradient id="grad1" x1="0%" y1="0%" x2="100%" y2="100%">
      <stop offset="0%" style="stop-color:#4a4a4a;stop-opacity:1" />
      <stop offset="100%" style="stop-color:#2c2c2c;stop-opacity:1" />
    </linearGradient>
  </defs>
  
  <!-- Main lightning bolt shape -->
  <g transform="translate(187.5, 187.5)">
    <!-- Upper bolt segment -->
    <path d="M -50 -120 
             C -50 -80, -30 -40, 10 -30
             L 40 -30
             L -10 10
             C -40 10, -70 -20, -70 -60
             C -70 -90, -60 -110, -50 -120 Z" 
          fill="url(#grad1)" />
    
    <!-- Lower bolt segment -->
    <path d="M 10 10
             L 70 -10
             C 70 30, 50 70, 20 100
             C 0 120, -20 125, -30 115
             C -20 80, 0 45, 10 10 Z" 
          fill="#3a3a3a" />
    
    <!-- Base elements (bulb base) -->
    <g transform="translate(0, 130)">
      <rect x="-40" y="0" width="80" height="12" rx="6" fill="#4a4a4a"/>
      <rect x="-35" y="15" width="70" height="10" rx="5" fill="#3a3a3a"/>
      <rect x="-25" y="28" width="50" height="8" rx="4" fill="#4a4a4a"/>
      <ellipse cx="0" cy="40" rx="15" ry="4" fill="#3a3a3a"/>
    </g>
  </g>
</svg>